<svg width="675" height="215" viewBox="0 0 675 215" fill="none" xmlns="http://www.w3.org/2000/svg">
<path d="M43.3196 91.2337C43.1846 89.9396 43.1173 88.6394 43.1181 87.3383C43.1143 78.9809 45.7763 70.8402 50.7171 64.0997C55.658 57.3592 62.6201 52.3703 70.5911 49.8586C78.5621 47.3468 87.1265 47.443 95.0391 50.1332C102.952 52.8234 109.8 57.9674 114.588 64.8171L146.277 31.3376C135.575 18.1316 121.043 8.56621 104.682 3.95747C88.3209 -0.651272 70.9335 -0.0769378 54.912 5.60146C38.8905 11.2799 25.0222 21.7833 15.2149 35.6668C5.40771 49.5503 0.143489 66.1316 0.146486 83.1296C0.146486 94.8939 5.28427 108.953 12.8958 123.359L43.3196 91.2337Z" fill="#073A4D"/>
<path d="M121.035 80.0962C122.741 89.1578 121.206 98.5307 116.698 106.574C112.19 114.618 104.997 120.82 96.377 124.094C87.7572 127.369 78.2604 127.507 69.5489 124.485C60.8374 121.463 53.4663 115.474 48.7258 107.565L20.7422 137.093C41.562 170.729 71.2358 202.787 76.2616 208.104L82.4068 214.664L88.5968 208.06C96.4322 199.799 164.712 125.978 164.712 83.0849C164.728 69.5432 161.373 56.2105 154.951 44.2885L121.035 80.0962Z" fill="#073A4D"/>
<path d="M105.885 92.5878C108.78 79.6222 100.617 66.764 87.6516 63.8682C74.686 60.9724 61.8278 69.1356 58.932 82.1012C56.0362 95.0668 64.1994 107.925 77.165 110.821C90.1306 113.717 102.989 105.553 105.885 92.5878Z" fill="#FF2D5C"/>
<path d="M206.732 93.3493V148.768H233.653V92.9463C233.653 77.6001 241.04 68.4999 255.793 68.4999H264.748V40.9752H260.953C225.683 40.9752 207.527 59.2429 206.732 93.3493Z" fill="#FF2D5C"/>
<path d="M456.682 11.7268H443.53V57.2617C436.69 46.2921 426.616 40.8857 413.442 40.8857C385.324 41.8819 371.365 59.5675 371.365 95.4649C371.365 130.579 387.719 148.298 420.393 148.902C453.301 149.104 469.856 133.355 469.856 101.644V25.0918C469.84 21.5851 468.452 18.2242 465.99 15.7269C463.529 13.2296 460.188 11.794 456.682 11.7268ZM420.784 126.392C405.64 126.392 398.398 115.624 398.655 94.2896C399.45 73.9511 406.826 63.9777 421.176 63.9777C435.526 63.9777 442.903 73.9175 443.507 94.2896C443.53 115.624 435.974 126.392 420.784 126.392Z" fill="#FF2D5C"/>
<path d="M528.141 40.8856C496.038 41.0758 479.886 58.7951 479.886 94.2223C479.886 129.649 495.836 147.951 527.738 148.947C553.662 148.947 568.683 136.746 574.47 114.695H554.927C553.251 114.647 551.585 114.959 550.04 115.609C548.495 116.26 547.108 117.235 545.972 118.467C541.205 123.138 534.835 125.813 528.163 125.944C515.201 125.944 508.228 117.874 507.22 101.935H574.761C577.213 61.4143 561.643 40.8856 528.141 40.8856ZM507.601 83.2079C509.593 69.4176 516.388 62.3434 527.749 62.3434C539.11 62.3434 545.658 69.4512 547.281 83.2303L507.601 83.2079Z" fill="#FF2D5C"/>
<path d="M661.275 40.9529C652.499 40.9529 648.313 45.3295 648.514 54.1052V109.972C648.514 121.747 642.548 127.523 630.605 127.523C618.662 127.523 612.695 121.747 612.695 109.972V40.9529H586.111V104.599C586.111 122.34 590.7 133.903 599.879 139.713C608.73 145.619 619.147 148.739 629.788 148.667C640.711 148.759 651.461 145.934 660.928 140.485C670.297 134.709 674.886 122.743 674.886 104.599V40.9529H661.275Z" fill="#FF2D5C"/>
<path d="M334.752 54.1276V100.155C334.752 106.244 334.226 109.882 331.159 114.068C328.092 118.255 323.155 118.837 317.726 118.837C312.298 118.837 306.746 117.281 304.294 114.203C301.843 111.125 300.69 106.367 300.69 100.189V41.1656H273.333V102.36C273.333 136.276 286.855 151.537 313.898 148.141C318.297 147.671 329.726 146.16 334.92 143.664V157.577H334.83V158.596C334.779 158.759 334.749 158.929 334.74 159.1C334.717 159.896 334.574 160.685 334.315 161.439L334.147 162.144L333.968 162.861L333.8 163.364L333.711 163.666C332.611 167.08 330.561 170.108 327.8 172.397C325.219 174.62 321.928 175.847 318.521 175.856C316.38 175.85 314.267 175.371 312.332 174.454C310.397 173.537 308.688 172.204 307.328 170.55C304.152 166.96 302.355 162.358 302.257 157.566L277.497 174.703C278.639 179.3 281.624 184.524 286.452 190.374C293.832 199.03 303.634 203.508 315.857 203.806H320.402C326.037 203.777 331.609 202.604 336.778 200.359C342.208 198.194 347.056 194.79 350.937 190.419C358.482 181.352 362.25 170.532 362.243 157.958V40.9529H347.512C338.748 40.9529 334.561 45.3295 334.752 54.1276Z" fill="#FF2D5C"/>
</svg>
